<mxfile host="app.diagrams.net" modified="2024-04-01T02:04:52.882Z" agent="Mozilla/5.0 (Windows NT 10.0; Win64; x64) AppleWebKit/537.36 (KHTML, like Gecko) Chrome/123.0.0.0 Safari/537.36 Edg/123.0.0.0" etag="H7bXgXKzOu_zXvEZL1bT" version="24.2.1" type="device">
  <diagram name="Page-1" id="2cc2dc42-3aac-f2a9-1cec-7a8b7cbee084">
    <mxGraphModel dx="1298" dy="789" grid="1" gridSize="10" guides="1" tooltips="1" connect="1" arrows="1" fold="1" page="1" pageScale="1" pageWidth="1100" pageHeight="850" background="#ffffff" math="0" shadow="0">
      <root>
        <mxCell id="0" />
        <mxCell id="1" parent="0" />
        <mxCell id="7026571954dc6520-1" value="" style="strokeWidth=1;shadow=0;dashed=0;align=center;html=1;shape=mxgraph.mockup.containers.browserWindow;rSize=0;strokeColor=#666666;mainText=,;recursiveResize=0;rounded=0;labelBackgroundColor=none;fontFamily=Verdana;fontSize=12" parent="1" vertex="1">
          <mxGeometry x="30" y="20" width="1050" height="1020" as="geometry" />
        </mxCell>
        <mxCell id="T11lgbOliv7DSvSzRczO-21" value="" style="html=1;shadow=0;dashed=0;fillColor=#F8F9FA;strokeColor=none;fontSize=16;fontColor=#181819;align=left;spacing=2;spacingLeft=55;" vertex="1" parent="7026571954dc6520-1">
          <mxGeometry y="110" width="1050" height="140" as="geometry" />
        </mxCell>
        <mxCell id="T11lgbOliv7DSvSzRczO-22" value="" style="html=1;shadow=0;dashed=0;shape=mxgraph.bootstrap.logo;fillColor=#54407A;strokeColor=none;sketch=0;" vertex="1" parent="T11lgbOliv7DSvSzRczO-21">
          <mxGeometry width="40" height="40" relative="1" as="geometry">
            <mxPoint x="10" y="10" as="offset" />
          </mxGeometry>
        </mxCell>
        <mxCell id="7026571954dc6520-4" value="Hunting Supply Guru" style="text;html=1;points=[];align=left;verticalAlign=top;spacingTop=-4;fontSize=30;fontFamily=Verdana" parent="T11lgbOliv7DSvSzRczO-21" vertex="1">
          <mxGeometry x="30" y="90" width="340" height="50" as="geometry" />
        </mxCell>
        <mxCell id="7026571954dc6520-2" value="Page 1" style="strokeWidth=1;shadow=0;dashed=0;align=center;html=1;shape=mxgraph.mockup.containers.anchor;fontSize=17;fontColor=#666666;align=left;" parent="7026571954dc6520-1" vertex="1">
          <mxGeometry x="60" y="12" width="110" height="26" as="geometry" />
        </mxCell>
        <mxCell id="7026571954dc6520-3" value="https://www.huntingguru.com/contact" style="strokeWidth=1;shadow=0;dashed=0;align=center;html=1;shape=mxgraph.mockup.containers.anchor;rSize=0;fontSize=17;fontColor=#666666;align=left;" parent="7026571954dc6520-1" vertex="1">
          <mxGeometry x="130" y="60" width="250" height="26" as="geometry" />
        </mxCell>
        <mxCell id="T11lgbOliv7DSvSzRczO-41" value="" style="shape=rect;fillColor=#ffffff;strokeColor=#eeeeee;shadow=0;" vertex="1" parent="7026571954dc6520-1">
          <mxGeometry x="-5" y="970" width="1050" height="50" as="geometry" />
        </mxCell>
        <mxCell id="T11lgbOliv7DSvSzRczO-42" value="Home" style="shape=rect;strokeColor=none;fillColor=none;fontSize=12;fontColor=#2196F3;dashed=0;whiteSpace=wrap;html=1;" vertex="1" parent="T11lgbOliv7DSvSzRczO-41">
          <mxGeometry width="262.5" height="50" as="geometry" />
        </mxCell>
        <mxCell id="T11lgbOliv7DSvSzRczO-45" value="Contact" style="shape=rect;strokeColor=none;fillColor=none;fontSize=12;fontColor=#2196F3;dashed=0;whiteSpace=wrap;html=1;" vertex="1" parent="T11lgbOliv7DSvSzRczO-41">
          <mxGeometry x="787.5" width="262.5" height="50" as="geometry" />
        </mxCell>
        <mxCell id="T11lgbOliv7DSvSzRczO-46" value="" style="rounded=1;whiteSpace=wrap;html=1;" vertex="1" parent="7026571954dc6520-1">
          <mxGeometry x="175" y="370" width="700" height="570" as="geometry" />
        </mxCell>
        <mxCell id="T11lgbOliv7DSvSzRczO-47" value="Contact Us" style="text;html=1;align=center;verticalAlign=middle;whiteSpace=wrap;rounded=0;fontSize=19;" vertex="1" parent="7026571954dc6520-1">
          <mxGeometry x="405" y="405" width="230" height="30" as="geometry" />
        </mxCell>
        <mxCell id="T11lgbOliv7DSvSzRczO-50" value="" style="strokeWidth=1;shadow=0;dashed=0;align=center;html=1;shape=mxgraph.mockup.buttons.button;strokeColor=#666666;mainText=;buttonStyle=round;fontSize=17;fontStyle=0;fillColor=none;whiteSpace=wrap;rounded=0;labelBackgroundColor=none;" vertex="1" parent="7026571954dc6520-1">
          <mxGeometry x="230" y="620" width="550" height="30" as="geometry" />
        </mxCell>
        <mxCell id="T11lgbOliv7DSvSzRczO-51" value="" style="strokeWidth=1;shadow=0;dashed=0;align=center;html=1;shape=mxgraph.mockup.buttons.button;strokeColor=#666666;mainText=;buttonStyle=round;fontSize=17;fontStyle=0;fillColor=none;whiteSpace=wrap;rounded=0;labelBackgroundColor=none;" vertex="1" parent="7026571954dc6520-1">
          <mxGeometry x="220" y="700" width="560" height="170" as="geometry" />
        </mxCell>
        <mxCell id="T11lgbOliv7DSvSzRczO-52" value="Submit" style="strokeWidth=1;shadow=0;dashed=0;align=center;html=1;shape=mxgraph.mockup.buttons.button;strokeColor=#666666;mainText=;buttonStyle=round;fontSize=17;fontStyle=0;fillColor=none;whiteSpace=wrap;rounded=0;labelBackgroundColor=none;" vertex="1" parent="7026571954dc6520-1">
          <mxGeometry x="230" y="890" width="100" height="30" as="geometry" />
        </mxCell>
        <mxCell id="T11lgbOliv7DSvSzRczO-53" value="Desciption" style="text;html=1;points=[];align=left;verticalAlign=top;spacingTop=-4;fontSize=15;fontFamily=Verdana" vertex="1" parent="7026571954dc6520-1">
          <mxGeometry x="230" y="660" width="170" height="30" as="geometry" />
        </mxCell>
        <mxCell id="T11lgbOliv7DSvSzRczO-54" value="Subject" style="text;html=1;points=[];align=left;verticalAlign=top;spacingTop=-4;fontSize=15;fontFamily=Verdana" vertex="1" parent="7026571954dc6520-1">
          <mxGeometry x="230" y="580" width="170" height="30" as="geometry" />
        </mxCell>
        <mxCell id="T11lgbOliv7DSvSzRczO-55" value="Email" style="text;html=1;points=[];align=left;verticalAlign=top;spacingTop=-4;fontSize=15;fontFamily=Verdana" vertex="1" parent="7026571954dc6520-1">
          <mxGeometry x="230" y="480" width="170" height="30" as="geometry" />
        </mxCell>
        <mxCell id="T11lgbOliv7DSvSzRczO-48" value="" style="strokeWidth=1;shadow=0;dashed=0;align=center;html=1;shape=mxgraph.mockup.buttons.button;strokeColor=#666666;mainText=;buttonStyle=round;fontSize=17;fontStyle=0;fillColor=none;whiteSpace=wrap;rounded=0;labelBackgroundColor=none;" vertex="1" parent="1">
          <mxGeometry x="260" y="540" width="550" height="30" as="geometry" />
        </mxCell>
      </root>
    </mxGraphModel>
  </diagram>
</mxfile>
